<svg id="レイヤー_3" data-name="レイヤー 3" xmlns="http://www.w3.org/2000/svg" viewBox="0 0 77.41 62.37"><defs><style>.cls-1{fill:#fff;stroke:#231815;stroke-width:14px;}.cls-1,.cls-4{stroke-miterlimit:10;}.cls-2{fill:#e69e37;}.cls-3{fill:#f6e25b;}.cls-4{fill:none;stroke:#fff;stroke-linecap:round;stroke-width:21px;}</style></defs><title>大真面目デザインロゴ</title><path class="cls-1" d="M631.82,407.31" transform="translate(-596 -349.52)"/><path class="cls-1" d="M622.58,407.37" transform="translate(-596 -349.52)"/><path class="cls-2" d="M635.56,386.45l37.85-.27c.08,12.11-7.86,23.07-10.53,25.3" transform="translate(-596 -349.52)"/><path class="cls-3" d="M635.44,349.52c20.41-.14,37.83,16.28,38,36.69l-37.85.27" transform="translate(-596 -349.52)"/><path class="cls-4" d="M641.08,393.58" transform="translate(-596 -349.52)"/><path class="cls-4" d="M630.88,393.51" transform="translate(-596 -349.52)"/><path class="cls-3" d="M632.7,349.58A37,37,0,0,0,596,386.79l37.09-.26" transform="translate(-596 -349.52)"/><path class="cls-4" d="M619.56,398.17" transform="translate(-596 -349.52)"/><path class="cls-4" d="M631.07,397.19" transform="translate(-596 -349.52)"/><path class="cls-2" d="M633.09,386.47l-37.09.26c.08,12.11,7.43,23,10.13,25.16" transform="translate(-596 -349.52)"/></svg>